<svg height="511pt" viewBox="0 0 511.99789 511" width="511pt" xmlns="http://www.w3.org/2000/svg"><path d="m43.980469 189.71875h424.039062v314.53125h-424.039062zm0 0" fill="#ffc73b"/><path d="m43.980469 189.71875h424.039062v61.628906h-424.039062zm0 0" fill="#efb025"/><path d="m7.902344 110.710938h496.195312v105.875h-496.195312zm0 0" fill="#ffc73b"/><path d="m255.996094 145.824219c-3.226563 3.75-6.386719 7.550781-9.472656 11.398437-11.496094 14.304688-22.019532 29.296875-31.53125 44.859375-30.207032 49.367188-50.265626 104.523438-58.726563 162.246094-12.714844-16.867187-24.453125-35.117187-35.007813-54.628906-18.574218 12.117187-36.726562 25.972656-54.207031 41.5625 8.976563-61.230469 28.753907-120.082031 58.125-173.90625 15.6875-28.761719 34.125-56.089844 55.121094-81.574219 2.425781-2.960938 4.890625-5.878906 7.386719-8.789062 10.609375 9.136718 21.207031 18.269531 31.816406 27.402343 10.839844 9.335938 21.683594 18.667969 32.523438 28.015625 1.328124 1.125 2.644531 2.273438 3.972656 3.414063zm0 0" fill="#ff4440"/><path d="m444.949219 351.261719c-17.480469-15.589844-35.632813-29.445313-54.207031-41.5625-10.554688 19.511719-22.292969 37.761719-35.007813 54.628906-8.460937-57.722656-28.519531-112.878906-58.726563-162.246094-9.511718-15.5625-20.046874-30.554687-31.53125-44.859375-3.097656-3.847656-6.257812-7.648437-9.480468-11.398437 1.324218-1.140625 2.644531-2.277344 3.96875-3.414063 10.851562-9.347656 21.695312-18.691406 32.535156-28.015625 10.609375-9.144531 21.21875-18.265625 31.816406-27.402343 2.496094 2.898437 4.960938 5.828124 7.386719 8.777343 20.996094 25.484375 39.433594 52.8125 55.132813 81.585938 29.359374 53.824219 49.136718 112.675781 58.113281 173.90625zm0 0" fill="#ff4440"/><path d="m386.835938 177.355469-89.828126 24.726562c-9.511718-15.5625-20.046874-30.554687-31.53125-44.859375l-5.511718-14.8125-3.96875-10.683594 36.503906-17.332031 39.203125-18.625c20.996094 25.484375 39.433594 52.8125 55.132813 81.585938zm0 0" fill="#ea2f2f"/><path d="m255.996094 131.726562-3.972656 10.683594-5.5 14.8125c-11.496094 14.304688-22.019532 29.296875-31.53125 44.859375l-89.816407-24.726562c15.6875-28.761719 34.125-56.089844 55.121094-81.574219l39.203125 18.613281zm0 0" fill="#ea2f2f"/><g fill="#ff4440"><path d="m399.355469 11.8125-143.355469 68.082031 27.535156 74.058594 153.007813-42.117187c20.015625-5.507813 31.007812-26.984376 23.773437-46.4375l-12.628906-33.957032c-7.234375-19.457031-29.585938-28.53125-48.332031-19.628906zm0 0"/><path d="m112.648438 11.8125 143.351562 68.082031-27.535156 74.058594-153.007813-42.117187c-20.011719-5.507813-31.007812-26.984376-23.773437-46.4375l12.628906-33.957032c7.234375-19.457031 29.585938-28.53125 48.335938-19.628906zm0 0"/><path d="m278.476562 54.441406h-44.953124c-12.304688 0-22.28125 9.972656-22.28125 22.277344v65.316406c0 12.304688 9.976562 22.28125 22.28125 22.28125h44.953124c12.308594 0 22.28125-9.976562 22.28125-22.28125v-65.316406c0-12.304688-9.976562-22.277344-22.28125-22.277344zm0 0"/><path d="m216.496094 216.585938h79.007812v287.664062h-79.007812zm0 0"/></g><path d="m216.496094 216.585938h79.007812v34.761718h-79.007812zm0 0" fill="#ea2f2f"/><path d="m504.097656 102.808594h-41.6875c1.210938-1.699219 2.308594-3.484375 3.269532-5.355469 5.515624-10.773437 6.261718-23.460937 2.046874-34.8125l-12.632812-33.953125c-4.210938-11.339844-13.058594-20.457031-24.265625-25.011719-11.21875-4.558593-23.925781-4.195312-34.867187 1l-99.976563 47.480469c-4.941406-3.53125-10.984375-5.617188-17.507813-5.617188h-44.953124c-6.523438 0-12.570313 2.089844-17.511719 5.621094l-99.972657-47.488281c-10.941406-5.191406-23.648437-5.554687-34.867187-.996094-11.207031 4.554688-20.054687 13.671875-24.265625 25.007813l-12.632812 33.960937c-4.214844 11.347657-3.46875 24.035157 2.050781 34.808594.957031 1.871094 2.058593 3.660156 3.269531 5.355469h-41.691406c-4.363282 0-7.902344 3.535156-7.902344 7.902344v56.886718c0 4.363282 3.539062 7.902344 7.902344 7.902344 4.363281 0 7.902344-3.539062 7.902344-7.902344v-48.988281h54.886718c.878906.308594 1.769532.59375 2.671875.84375l66.339844 18.261719c-14.742187 22.589844-27.746094 46.351562-38.878906 70.972656h-85.019531v-9.484375c0-4.363281-3.539063-7.898437-7.902344-7.898437-4.363282 0-7.902344 3.535156-7.902344 7.898437v17.386719c0 4.363281 3.539062 7.902344 7.902344 7.902344h28.179687v279.753906c0 4.367187 3.539063 7.902344 7.902344 7.902344h424.03125c4.363281 0 7.902344-3.535157 7.902344-7.902344v-45.882813c0-4.363281-3.539063-7.902343-7.902344-7.902343-4.367187 0-7.902344 3.539062-7.902344 7.902343v37.984375h-156.707031v-266.996094c22.382812 42.394532 37.535156 88.492188 44.507812 136.121094.460938 3.152344 2.773438 5.71875 5.863282 6.507813.648437.167969 1.304687.246093 1.957031.246093 2.441406 0 4.792969-1.132812 6.308594-3.144531 11.359375-15.070312 21.921875-31.203125 31.457031-48.046875 15.96875 10.875 31.472656 23 46.183594 36.125 2.480468 2.210938 6.082031 2.636719 9.007812 1.058594 2.925782-1.574219 4.554688-4.8125 4.070313-8.101562-6.308594-43.035157-18.070313-85.355469-34.742188-125.625h42.089844v202.261718c0 4.367188 3.539063 7.902344 7.902344 7.902344 4.367187 0 7.902343-3.535156 7.902343-7.902344v-202.261718h28.183594c4.363282 0 7.898438-3.539063 7.898438-7.902344v-105.878906c.003906-4.367188-3.53125-7.902344-7.898438-7.902344zm-101.359375-83.859375c7.050781-3.34375 14.910157-3.570313 22.140625-.632813 7.21875 2.933594 12.6875 8.570313 15.402344 15.878906l12.628906 33.949219c2.71875 7.3125 2.253906 15.164063-1.300781 22.105469-3.550781 6.9375-9.648437 11.898438-17.164063 13.964844l-125.785156 34.628906v-37.976562c28.273438-17.3125 98.757813-53.019532 116.300782-28.257813 2.519531 3.558594 7.449218 4.40625 11.011718 1.882813 3.5625-2.523438 4.40625-7.457032 1.882813-11.015626-13.539063-19.113281-42.070313-20.042968-84.808594-2.757812-17.605469 7.117188-33.859375 15.804688-44.386719 21.832031v-5.832031c0-4.230469-.878906-8.261719-2.457031-11.921875zm-169.214843 43.390625h44.953124c7.929688 0 14.378907 6.453125 14.378907 14.378906v65.316406c0 7.929688-6.449219 14.378906-14.378907 14.378906h-44.953124c-7.929688 0-14.378907-6.449218-14.378907-14.378906v-65.316406c0-7.929688 6.449219-14.378906 14.378907-14.378906zm-13.28125 146.34375c7.558593-12.558594 15.785156-24.730469 24.636718-36.464844h22.234375c8.855469 11.734375 17.082031 23.90625 24.636719 36.464844zm-159.851563-118.433594c-3.554687-6.941406-4.019531-14.792969-1.304687-22.101562l12.636718-33.957032c2.710938-7.304687 8.179688-12.941406 15.398438-15.875 7.226562-2.9375 15.089844-2.710937 22.136718.632813l96.539063 45.855469c-1.578125 3.65625-2.457031 7.683593-2.457031 11.917968v6.28125c-10.492188-6.039062-27.113282-14.984375-45.167969-22.285156-42.734375-17.285156-71.269531-16.355469-84.808594 2.757812-2.523437 3.558594-1.679687 8.492188 1.882813 11.015626 3.5625 2.523437 8.492187 1.679687 11.011718-1.882813 17.707032-24.996094 89.351563 11.621094 117.082032 28.738281v37.496094l-125.78125-34.625c-7.519532-2.070312-13.617188-7.03125-17.167969-13.96875zm146.496094 65.960938c3.933593 7.359374 10.824219 12.910156 19.078125 15.046874-36.957032 51.5625-62.398438 110.808594-74.332032 173.082032-8.394531-12.265625-16.242187-25.121094-23.425781-38.398438-1.050781-1.945312-2.863281-3.359375-5.007812-3.902344-2.140625-.542968-4.410157-.164062-6.257813 1.042969-13.160156 8.582031-26.046875 17.996094-38.492187 28.105469 12.816406-67.273438 39.296875-132.140625 77.269531-189.0625zm-155 68.28125h42.09375c-16.671875 40.269531-28.433594 82.585937-34.746094 125.625-.480469 3.289062 1.144531 6.527343 4.070313 8.101562 2.929687 1.574219 6.527343 1.152344 9.007812-1.058594 14.710938-13.125 30.214844-25.25 46.1875-36.125 9.535156 16.84375 20.09375 32.972656 31.457031 48.046875 1.515625 2.011719 3.867188 3.148438 6.308594 3.148438.652344 0 1.308594-.082031 1.957031-.25 3.089844-.789063 5.398438-3.355469 5.859375-6.507813 6.976563-47.628906 22.128907-93.730468 44.507813-136.125v267h-156.703125zm172.507812 271.855468v-271.855468h63.210938v271.855468zm170.664063-193.265625c-1.847656-1.207031-4.121094-1.582031-6.257813-1.039062-2.140625.542969-3.957031 1.957031-5.007812 3.898437-7.183594 13.277344-15.03125 26.136719-23.425781 38.398438-11.933594-62.277344-37.375-121.519532-74.335938-173.078125 8.253906-2.132813 15.148438-7.6875 19.082031-15.050781l51.179688-14.089844c37.964843 56.933594 64.445312 121.800781 77.261719 189.066406-12.449219-10.109375-25.335938-19.523438-38.496094-28.105469zm101.136718-94.394531h-85.015624c-11.132813-24.621094-24.136719-48.382812-38.875-70.972656l66.332031-18.261719c.902343-.25 1.792969-.535156 2.671875-.84375h54.886718zm0 0"/></svg>